#!OML:ASF I:\golf\golf\golf 2\Subject 1\2002-09-07\Subject1.ASF
:FULLY-SPECIFIED
:DEGREES
341
root -5.25364 18.0004 -4.8765 -166.635 -7.70302 -179.056
lowerback -10.9405 17.7371 15.1927
upperback -16.3406 19.7303 -0.673347
thorax -7.04536 7.05329 -6.3943
lowerneck -6.61739 -18.2762 -4.04225
upperneck 12.4982 -24.5063 -1.40619
head 5.1401 -12.4148 -1.45824
rclavicle -1.07344e-014 -5.725e-014
rhumerus 99.9488 30.3423 -53.5042
rradius 88.055
rwrist 5.61738
rhand -44.8049 38.0197
rfingers 7.12502
rthumb -17.5959 8.7959
lclavicle -1.07344e-014 -5.725e-014
lhumerus 61.1774 23.8427 56.7327
lradius 96.6213
lwrist 6.18673
lhand -29.8983 17.9268
lfingers 7.12502
lthumb -183.219 -132.118
rfemur 16.9411 -7.59824 20.8866
rtibia 13.1443
rfoot 29.1395 -33.2477
rtoes 23.2784
lfemur -24.3606 -15.4531 -18.2514
ltibia 25.2484
lfoot 49.9019 -43.4835
ltoes 57.4042
342
root -5.24244 18.0052 -4.87958 -166.499 -7.72773 -179.077
lowerback -11.0123 17.1821 15.141
upperback -15.5876 19.0524 0.0837749
thorax -6.54059 6.87011 -5.65709
lowerneck -9.37678 -17.8704 -4.41565
upperneck 13.3501 -23.6038 -1.96595
head 5.8128 -11.9503 -1.83125
rclavicle 3.97569e-015 6.36111e-015
rhumerus 101.413 30.5273 -52.7662
rradius 87.7406
rwrist 4.89595
rhand -44.2452 37.1992
rfingers 7.12502
rthumb -17.0573 7.92803
lclavicle 3.97569e-015 6.36111e-015
lhumerus 61.0047 25.2029 56.0967
lradius 95.728
lwrist 7.01664
lhand -29.7979 18.3512
lfingers 7.12502
lthumb -183.122 -131.692
rfemur 16.8393 -7.5351 20.9487
rtibia 13.0758
rfoot 28.8243 -33.5274
rtoes 24.4698
lfemur -24.469 -15.3772 -18.2282
ltibia 25.2768
lfoot 49.3992 -44.0229
ltoes 57.1407
343
root -5.23413 18.0081 -4.88035 -166.359 -7.66456 -179.191
lowerback -10.9394 17.0508 15.169
upperback -15.4365 18.9078 0.216399
thorax -6.46744 6.82158 -5.56797
lowerneck -9.82992 -17.7193 -4.50956
upperneck 13.3882 -23.3125 -2.10586
head 5.88874 -11.8087 -1.88089
rclavicle 9.30312e-014 -3.02153e-014
rhumerus 101.155 30.339 -52.9942
rradius 87.2891
rwrist 4.37146
rhand -43.6227 36.527
rfingers 7.12502
rthumb -16.4579 7.20505
lclavicle 9.30312e-014 -3.02153e-014
lhumerus 60.7691 25.0753 55.3388
lradius 94.8214
lwrist 7.77443
lhand -29.6935 18.6871
lfingers 7.12502
lthumb -183.021 -131.355
rfemur 16.7457 -7.42443 20.8671
rtibia 13.0113
rfoot 28.5596 -33.8289
rtoes 25.0273
lfemur -24.5428 -15.2023 -18.3554
ltibia 25.2877
lfoot 49.2158 -44.1517
ltoes 57.1576
344
root -5.22494 18.0137 -4.8828 -166.239 -7.57906 -179.31
lowerback -10.8709 17.0872 15.2043
upperback -15.6093 18.946 0.101894
thorax -6.64736 6.79385 -5.7257
lowerneck -8.98834 -17.6429 -4.37356
upperneck 13.1039 -23.2845 -2.1449
head 5.64332 -11.8137 -1.80064
rclavicle 3.02153e-014 9.62118e-014
rhumerus 100.091 30.1383 -53.7732
rradius 86.6198
rwrist 4.30231
rhand -43.0161 35.8942
rfingers 7.12502
rthumb -15.8739 6.52485
lclavicle 3.02153e-014 9.62118e-014
lhumerus 60.3976 24.3222 54.4387
lradius 93.9609
lwrist 8.71582
lhand -29.272 18.8399
lfingers 7.12502
lthumb -182.614 -131.196
rfemur 16.6408 -7.36167 20.7538
rtibia 13.0043
rfoot 28.814 -33.6333
rtoes 24.3328
lfemur -24.5926 -14.9933 -18.5086
ltibia 25.2701
lfoot 49.315 -43.8614
ltoes 57.3808
345
root -5.21329 18.0182 -4.88484 -166.105 -7.51782 -179.333
lowerback -10.879 17.0685 15.2527
upperback -15.6993 18.8885 0.134223
thorax -6.75737 6.73155 -5.7328
lowerneck -8.51509 -17.5214 -4.35062
upperneck 12.8943 -23.1378 -2.22652
head 5.48791 -11.7571 -1.7522
rclavicle 4.77083e-014 1.06549e-013
rhumerus 99.3968 30.0166 -54.358
rradius 85.8563
rwrist 4.44171
rhand -42.3959 34.7419
rfingers 7.12502
rthumb -15.2765 5.32607
lclavicle 4.77083e-014 1.06549e-013
lhumerus 60.0524 23.8008 53.6301
lradius 93.0557
lwrist 9.87814
lhand -28.7152 18.8993
lfingers 7.12502
lthumb -182.077 -131.131
rfemur 16.4734 -7.27798 20.7789
rtibia 13.0624
rfoot 29.1903 -33.1194
rtoes 23.1331
lfemur -24.6516 -14.7713 -18.5436
ltibia 25.2015
lfoot 49.3463 -43.6186
ltoes 57.5642
346
root -5.19772 18.0202 -4.88531 -166.007 -7.47025 -179.296
lowerback -10.815 17.0421 15.3428
upperback -15.7213 18.8459 0.230129
thorax -6.83499 6.68779 -5.70081
lowerneck -8.16426 -17.4536 -4.50568
upperneck 12.6812 -23.0398 -2.22657
head 5.38161 -11.7197 -1.68057
rclavicle 2.36156e-013 1.35174e-013
rhumerus 98.8814 29.6658 -54.5352
rradius 85.2521
rwrist 3.74414
rhand -42.3817 34.1417
rfingers 7.12502
rthumb -15.2628 4.72479
lclavicle 2.36156e-013 1.35174e-013
lhumerus 59.8212 23.3064 53.022
lradius 92.1429
lwrist 10.9847
lhand -28.2227 19.0133
lfingers 7.12502
lthumb -181.601 -131.013
rfemur 16.3071 -7.06576 20.9453
rtibia 13.1692
rfoot 29.1537 -32.8709
rtoes 22.3012
lfemur -24.6578 -14.4813 -18.5237
ltibia 25.0947
lfoot 49.4965 -43.3423
ltoes 57.7781
